<?xml version="1.0" encoding="utf-8"?>
<!-- Generator: Adobe Illustrator 27.5.0, SVG Export Plug-In . SVG Version: 6.00 Build 0)  -->
<svg version="1.1" id="Layer_1" xmlns="http://www.w3.org/2000/svg" xmlns:xlink="http://www.w3.org/1999/xlink" x="0px" y="0px"
	 viewBox="0 0 2627.061 2104.983" style="enable-background:new 0 0 2627.061 2104.983;" xml:space="preserve">
<g>
	<g>
		<g>
			<g>
				<path style="fill:#0067AB;" d="M193.931,1053.656l1160.018-948.943c-81.118-52.216-165.119,33.63-165.119,33.63L66.021,1065.907
					c-19.974,11.165-40.608,33.522-34.812,94.551c8.814,92.81,88.297,162.113,120.864,196.666l104.768-85.784l-46.416-211.449
					L193.931,1053.656z"/>
				<path style="fill:#263B76;" d="M152.074,1361.01c-1.037,0-2.068-0.414-2.828-1.223c-3.852-4.083-8.363-8.66-13.335-13.703
					c-37.654-38.187-100.673-102.099-108.57-185.259c-3.001-31.607-2.476-76.128,36.474-98.137l1122.399-927.226
					c4.248-4.22,88.717-86.234,169.839-34.016c1.044,0.671,1.705,1.806,1.776,3.047c0.07,1.24-0.457,2.44-1.419,3.229
					L201.602,1052.4l10.197,3.856c1.229,0.467,2.14,1.519,2.421,2.801l46.416,211.447c0.316,1.431-0.201,2.915-1.333,3.841
					l-104.769,85.785C153.814,1360.721,152.941,1361.01,152.074,1361.01z M1298.125,91.92c-57.498,0-105.89,48.501-106.519,49.14
					c-0.095,0.098-0.195,0.193-0.302,0.276L68.495,1068.901c-0.18,0.151-0.373,0.284-0.578,0.398
					c-16.901,9.45-38.695,29.144-32.838,90.791c7.635,80.408,69.439,143.087,106.365,180.538c3.979,4.038,7.666,7.776,10.957,11.206
					l100.134-81.991l-45.453-207.06l-14.525-5.491c-1.3-0.49-2.237-1.639-2.461-3.009c-0.224-1.37,0.3-2.755,1.374-3.636
					l1155.775-945.471C1330.725,95.655,1314.068,91.92,1298.125,91.92z"/>
			</g>
			<g>
				<path style="fill:#064782;" d="M151.326,1068.665c-27.517,0.326-55.872,7.193-78.618,23.11
					c-5.393,3.775-10.439,8.029-15.137,12.636c-4.843,4.751-9.716,9.887-13.582,15.479c-5.265,7.618-9.732,15.932-13.738,24.314
					c0.1,5.09,0.41,10.498,0.956,16.253c8.815,92.81,88.297,162.113,120.864,196.665l104.768-85.783l-41.909-190.919
					C194.558,1072.933,173.13,1068.408,151.326,1068.665z"/>
				<path style="fill:#263B76;" d="M152.074,1361.01c-1.035,0-2.068-0.414-2.828-1.223c-3.852-4.083-8.361-8.656-13.332-13.699
					C98.26,1307.902,35.238,1243.99,27.34,1160.825c-0.542-5.726-0.871-11.293-0.973-16.545c-0.012-0.607,0.119-1.207,0.379-1.749
					c4.776-9.995,9.239-17.893,14.047-24.849c4.28-6.197,9.762-11.828,14.058-16.044c4.977-4.88,10.235-9.27,15.627-13.046
					c27.456-19.213,59.096-23.555,80.803-23.813l0,0c20.794-0.239,42.662,3.787,64.99,11.996c1.246,0.455,2.171,1.518,2.455,2.812
					l41.909,190.917c0.315,1.431-0.202,2.915-1.334,3.841l-104.767,85.785C153.814,1360.721,152.941,1361.01,152.074,1361.01z
					 M34.158,1145.047c0.118,4.789,0.427,9.848,0.921,15.043c7.635,80.412,69.441,143.091,106.369,180.542
					c3.978,4.034,7.662,7.772,10.953,11.202l100.132-81.991l-40.937-186.496c-20.74-7.397-40.944-10.967-60.224-10.797l0,0
					c-20.611,0.243-50.605,4.33-76.437,22.409c-5.044,3.533-9.971,7.647-14.643,12.227c-4.299,4.22-9.221,9.293-13.105,14.914
					C42.751,1128.521,38.599,1135.829,34.158,1145.047z"/>
			</g>
			<path style="fill:#064782;" d="M210.678,1082.795c1.887,1.651-0.872,4.389-2.748,2.748c-3.203-2.803-6.582-5.382-10.208-7.618
				c-4.561-2.813-9.409-4.952-14.423-6.347c-4.015-0.76-8.063-1.341-12.125-1.813c-4.674-0.146-9.401,0.304-14.096,1.532
				c-13.826,3.617-25.836,12.315-35.706,22.416c-10.85,11.107-19.56,24.295-26.179,38.312c-6.374,13.496-10.65,27.849-11.723,42.762
				c-2.445,34.01,4.806,67.8,21.244,97.687c15.492,28.166,37.87,51.91,62.718,72.073l89.409-73.208l-41.909-190.919
				c-4.274-1.571-8.603-2.977-12.964-4.269C205.006,1078.166,207.925,1080.385,210.678,1082.795z"/>
			<path style="fill:#0067AB;" d="M1188.83,138.343L66.021,1065.907c-11.933,6.671-24.097,17.344-30.725,37.863
				c0.516-0.47,0.997-0.973,1.523-1.433c26.661-23.301,62.825-32.823,97.33-36.282c5.92-0.594,11.874-0.958,17.837-1.221
				c34.431-31.334,68.797-62.733,103.419-93.864c48.216-43.355,95.624-87.601,143.749-131.058
				c48.654-43.933,98.537-86.287,149.102-127.995c102.17-84.272,205.223-167.466,307.531-251.567
				c102.128-83.954,204.503-168.138,302.912-256.454c41.558-37.295,81.068-76.811,122.083-114.664
				C1229.094,97.229,1188.83,138.343,1188.83,138.343z"/>
			<g>
				<g>
					<g>
						<path style="fill:#0067AB;" d="M1352.094,2000.011L155.251,1331.398c-0.279-2.955-3.179,11.284-3.179,25.726l1212.737,685.233
							l1201.083-1034.954v-26.306L1352.094,2000.011z"/>
						<path style="fill:#263B76;" d="M1364.809,2046.245c-0.656,0-1.314-0.167-1.91-0.505L150.161,1360.51
							c-1.22-0.691-1.975-1.985-1.975-3.385c0-8.925,0.656-29.713,6.743-29.998c1.209-0.091,2.411,0.429,3.239,1.453
							l1193.48,666.731L2563.393,978.124c1.159-0.971,2.776-1.188,4.14-0.546c1.37,0.637,2.245,2.011,2.245,3.522v26.306
							c0,1.13-0.494,2.204-1.349,2.944L1367.346,2045.303C1366.623,2045.926,1365.719,2046.245,1364.809,2046.245z M155.981,1354.87
							l1208.362,682.76l1197.664-1032.005v-16.189L1354.593,2002.987c-1.238,1.039-2.99,1.199-4.394,0.417L157.575,1337.149
							C156.89,1341.334,156.123,1347.903,155.981,1354.87z M151.382,1331.764c0,0.004,0.002,0.011,0.002,0.015
							C151.384,1331.774,151.382,1331.768,151.382,1331.764z"/>
					</g>
					<g>
						<path style="fill:#064782;" d="M1353.948,384.927c-50.206,33.173-100.209,66.654-149.894,100.606
							c-101.578,69.413-201.867,140.758-299.836,215.193c-100.378,76.266-197.474,156.695-294.837,236.741
							c-98.099,80.647-195.708,161.9-291.903,244.815c-35.27,30.401-65.31,65.958-98.029,98.979
							c-17.927,18.093-42.24,35.037-64.199,50.137l1209.558,677.854l1166.675-999.271l34.408-28.883L1353.948,384.927z"/>
						<path style="fill:#263B76;" d="M1364.809,2013.138c-0.65,0-1.306-0.163-1.9-0.497L153.351,1334.788
							c-1.172-0.656-1.919-1.871-1.983-3.21c-0.06-1.343,0.575-2.618,1.682-3.381c19.104-13.137,45.27-31.129,63.639-49.671
							c10.902-11.001,21.7-22.496,32.141-33.606c20.883-22.226,42.478-45.211,66.112-65.582
							c84.088-72.477,174.135-147.997,291.969-244.872l23.723-19.513c87.977-72.371,178.949-147.205,271.233-217.318
							c90.776-68.971,188.904-139.399,299.995-215.306c46.558-31.82,95.605-64.74,149.943-100.643
							c1.151-0.762,2.618-0.853,3.857-0.246l1211.944,596.174c1.178,0.58,1.985,1.714,2.142,3.02c0.157,1.302-0.354,2.6-1.359,3.442
							l-34.407,28.883l-1166.647,999.248C1366.615,2012.819,1365.715,2013.138,1364.809,2013.138z M162.595,1331.062
							l1201.747,673.474l1164.615-997.506l29.871-25.072L1354.233,389.396c-53.566,35.406-101.991,67.916-147.984,99.344
							c-110.984,75.836-209.009,146.192-299.679,215.079c-92.165,70.026-183.078,144.811-270.996,217.135l-23.725,19.513
							c-117.787,96.837-207.793,172.319-291.833,244.759c-23.323,20.101-44.775,42.934-65.521,65.013
							c-10.475,11.148-21.31,22.681-32.285,33.758C204.95,1301.416,181.315,1318.147,162.595,1331.062z"/>
					</g>
				</g>
				<g>
					<g>
						<path style="fill:#FFFFFF;" d="M1367.81,323.054c-7.104-13.922-12.373-28.726-15.475-44.05
							c-3.298-16.293-4.283-32.97-3.974-49.566c0.382-20.472,2.016-40.939,6.922-60.861c3.509-14.26,8.258-28.154,13.176-41.986
							l-0.566-10.371L193.4,1089.636c0,0-82.37,148.613,11.519,243.944l1175.417-989.122l-0.012-0.217
							C1375.774,337.413,1371.545,330.375,1367.81,323.054z"/>
						<path style="fill:#231F20;" d="M204.919,1337.467c-1.008,0-2.012-0.391-2.769-1.158
							c-94.83-96.289-12.988-247.046-12.149-248.557c0.234-0.425,0.546-0.8,0.919-1.108l1174.493-973.416
							c1.132-0.938,2.693-1.161,4.036-0.569c1.345,0.588,2.244,1.882,2.324,3.347l0.565,10.371c0.029,0.516-0.045,1.028-0.219,1.514
							c-4.438,12.482-9.471,27.016-13.063,41.614c-4.203,17.07-6.366,36.135-6.811,60.008c-0.339,18.158,0.936,34.096,3.897,48.721
							c2.986,14.747,8.076,29.232,15.129,43.056l0,0c3.459,6.778,7.478,13.582,12.286,20.796c0.381,0.573,0.603,1.233,0.644,1.916
							c0.076,1.229-0.421,2.637-1.362,3.43L207.421,1336.556C206.695,1337.167,205.805,1337.467,204.919,1337.467z
							 M196.464,1092.144c-5.526,10.439-75.099,146.999,8.734,236.125l1170.079-984.63c-4.187-6.459-7.778-12.641-10.928-18.819l0,0
							c-7.373-14.451-12.698-29.607-15.823-45.044c-3.076-15.187-4.401-31.676-4.053-50.407c0.457-24.466,2.691-44.077,7.034-61.723
							c3.606-14.656,8.591-29.133,13.027-41.622l-0.104-1.89L196.464,1092.144z"/>
					</g>
				</g>
			</g>
			<g>
				<path style="fill:#E3E2D8;" d="M1380.336,1887.637l-5.881,74.702L175.087,1317.542c0,0-181.005-159.754,3.105-238.311
					l1184.743,639.165L1380.336,1887.637z"/>
				<path style="fill:#ABAB9D;" d="M1374.455,1966.226c-0.632,0-1.266-0.155-1.84-0.462l-1199.367-644.8
					c-0.262-0.141-0.507-0.312-0.731-0.509c-3.76-3.32-91.924-82.128-79.699-157.921c5.873-36.416,34.083-65.643,83.849-86.879
					c1.091-0.459,2.331-0.406,3.37,0.155l1184.743,639.166c1.134,0.611,1.89,1.741,2.021,3.02l17.401,169.241
					c0.025,0.236,0.027,0.47,0.01,0.702l-5.882,74.705c-0.105,1.309-0.861,2.478-2.014,3.107
					C1375.736,1966.067,1375.097,1966.226,1374.455,1966.226z M177.338,1314.337l1193.711,641.761l5.387-68.417l-17.154-166.843
					l-1181.28-637.295c-46.075,20.041-72.151,47.022-77.509,80.215C89.293,1233.117,171.471,1309.028,177.338,1314.337z"/>
			</g>
			<path style="opacity:0.6;fill:#C8C8C1;" d="M504.51,1490.947c-23.078-14.121-46.354-27.916-69.337-42.19
				c-21.793-13.534-42.981-27.991-64.764-41.537c-82.984-51.614-171.419-96.583-244.995-161.801
				c-1.79-1.587,0.503-3.878,2.355-3.051c38.068,17.008,73.253,39.515,108.201,62.074c31.901,20.591,64.012,40.588,97.388,58.727
				c33.235,18.063,67.04,35.053,100.23,53.199c-36.41-24.437-72.471-49.417-109.198-73.348
				c-65.237-42.511-130.9-84.958-190.381-135.42c-1.477-1.253,0.097-3.853,1.891-3.248c6.532,2.203,12.967,4.666,19.312,7.363
				c27.935,11.871,54.006,27.646,79.96,43.262c26.683,16.056,53.972,30.891,81.15,46.078
				c56.276,31.445,111.842,64.136,167.405,96.817c55.36,32.56,110.31,65.807,165.791,98.165
				c55.664,32.464,111.714,64.283,168.457,94.833c23.807,12.819,47.769,25.352,71.841,37.669
				c-28.826-17.355-57.193-35.52-85.813-53.153c-55.75-34.347-111.436-68.833-166.851-103.72
				c-55.102-34.69-109.161-70.876-163.354-106.963c-53.149-35.392-106.741-70.135-161.551-102.914
				c-49.35-29.512-100.639-57.033-143.854-95.449c-1.415-1.257,0.071-3.914,1.891-3.248c46.22,16.937,91.631,36.01,136.367,56.54
				c80.779,37.072,159.312,78.806,237.29,121.394c69.874,38.163,139.364,77.052,209.841,114.101
				c-41.942-30.218-84.724-59.254-127.934-87.628c-44.929-29.501-90.258-58.388-135.439-87.498
				c-46.132-29.72-91.508-60.521-136.872-91.392c-22.695-15.444-45.391-30.879-68.173-46.191
				c-19.877-13.359-40.219-25.822-60.738-38.139l-46.432-25.05c-184.11,78.557-3.105,238.311-3.105,238.311l369.231,198.504
				C531.179,1507.478,517.892,1499.136,504.51,1490.947z"/>
			<path style="opacity:0.6;fill:#C8C8C1;" d="M1195.018,1800.702c-11.591-7.57-23.515-14.636-35.798-21.027
				c-13.249-6.893-27.064-12.804-40.875-18.47c-27.86-11.43-56.381-21.238-85.263-29.748c-13.959-4.113-28.661-6.821-42.809-10.923
				c18.324,8.268,36.362,17.171,54.199,26.443c48.377,25.147,95.654,52.746,146.031,73.804c23.56,9.848,47.256,19.378,70.612,29.709
				c0.211,0.093,0.421,0.189,0.632,0.283c-0.315-0.258-0.63-0.519-0.945-0.777
				C1239.576,1832.656,1217.986,1815.701,1195.018,1800.702z"/>
			<path style="opacity:0.6;fill:#C8C8C1;" d="M1002.972,1632.47c-31.727-20.844-64.111-40.327-97.64-58.143
				c-30.378-16.142-61.706-30.547-91.635-47.507c-13.201-7.479-26.472-15.031-40.547-20.767c-8.776-3.576-18.274-6.702-27.875-7.633
				c30.757,19.757,61.903,38.9,93.329,57.575c32.689,19.426,65.665,38.364,98.794,57.027c33.085,18.639,66.322,37.005,99.589,55.315
				c32.303,17.78,64.63,35.514,96.876,53.398c-11.189-7.772-22.374-15.547-33.575-23.301
				C1068.065,1676.13,1035.727,1653.987,1002.972,1632.47z"/>
			<path style="opacity:0.6;fill:#C8C8C1;" d="M120.3,1240.542c-2.142-15.427,1.782-30.774,14.029-41.047
				c11.304-9.48,26.672-12.382,41.056-12.394c39.034-0.034,77.977,16.661,112.81,32.673c36.496,16.775,71.403,36.61,106.515,56.046
				c19.527,10.808,39.665,20.357,59.664,30.255c31.413,15.544,808.394,484.979,899.575,539.656l8.987-127.335L178.192,1079.23
				c-112.623,48.054-88.619,126.487-53.001,180.154C122.936,1253.256,121.191,1246.974,120.3,1240.542z"/>
			<g>
				<g>
					<path style="fill:#BFC0B8;" d="M2537.346,951.813c-7.104-13.922-12.372-28.725-15.475-44.05
						c-3.298-16.293-4.283-32.969-3.974-49.565c0.382-20.473,2.016-40.939,6.921-60.862c3.509-14.26,12.61-52.357,12.61-52.357
						l-1174.492,973.416c0,0-82.37,148.613,11.52,243.945l1175.417-989.123l-0.013-0.216
						C2545.309,966.172,2541.082,959.134,2537.346,951.813z"/>
					<path style="fill:#ABAB9D;" d="M1374.455,1966.226c-1.008,0-2.011-0.39-2.769-1.157
						c-94.83-96.289-12.988-247.046-12.149-248.557c0.234-0.425,0.546-0.801,0.919-1.108l1174.493-973.417
						c1.292-1.073,3.113-1.191,4.533-0.307c1.418,0.88,2.115,2.573,1.726,4.201c0,0-9.106,38.118-12.616,52.383
						c-4.202,17.066-6.365,36.131-6.81,60.004c-0.34,18.162,0.936,34.1,3.897,48.725c2.987,14.747,8.076,29.232,15.129,43.056l0,0
						c3.449,6.762,7.468,13.563,12.286,20.796c0.381,0.572,0.603,1.232,0.645,1.917c0.076,1.229-0.421,2.637-1.362,3.43
						l-1175.418,989.123C1376.231,1965.927,1375.341,1966.226,1374.455,1966.226z M1366,1720.903
						c-5.526,10.44-75.099,147,8.734,236.125l1170.079-984.63c-4.195-6.474-7.786-12.656-10.928-18.819l0,0
						c-7.373-14.451-12.698-29.607-15.823-45.045c-3.076-15.186-4.401-31.675-4.053-50.41c0.457-24.465,2.69-44.077,7.034-61.719
						c2.281-9.263,6.924-28.605,9.893-41.003L1366,1720.903z"/>
				</g>
			</g>
			<g style="opacity:0.6;">
				<path style="fill:#C8C8C1;" d="M1638.902,1606.451c-25.717,21.345-51.275,42.884-76.517,64.79
					c-24.596,21.344-49.056,42.849-72.652,65.3c-23.218,22.093-45.863,44.775-68.769,67.189
					c-7.303,7.146-14.656,14.245-22.042,21.309c13.849-9.171,27.487-18.664,40.874-28.489
					c29.764-21.843,58.455-45.117,86.461-69.163c13.745-11.8,27.324-23.79,40.788-35.908c13.632-12.268,27.085-24.597,39.844-37.785
					c25.932-26.802,49.748-55.572,75.71-82.34c1.569-1.618,3.177-3.199,4.765-4.799
					C1671.174,1579.81,1655.003,1593.088,1638.902,1606.451z"/>
				<path style="fill:#C8C8C1;" d="M2472.918,884.182c-26.026,21.444-51.79,43.203-77.778,64.693
					c-26.07,21.556-52.677,42.418-79.061,63.586c-26.667,21.395-53.104,43.079-79.278,65.077
					c-12.293,10.333-24.393,20.897-36.873,31.005c-9.057,7.336-18.605,14.786-26.193,23.785c1.001-0.48,2.018-0.926,3.013-1.417
					c29.43-14.502,56.625-33.241,82.622-53.15c26.961-20.648,52.712-42.815,78.561-64.822c12.388-10.544,24.796-21.066,37.41-31.339
					c13.406-10.919,27.074-21.516,40.537-32.368c29.392-23.693,58.458-47.795,87.043-72.458c5.018-4.33,10.001-8.699,14.988-13.065
					c0.001-1.836-0.046-3.675-0.012-5.51c0.065-3.531,0.187-7.061,0.338-10.589C2502.988,859.624,2487.899,871.839,2472.918,884.182
					z"/>
				<path style="fill:#C8C8C1;" d="M1628.545,1681.639c0.387-0.12,0.787-0.194,1.173-0.317
					c28.946-9.274,197.023-159.8,222.455-182.124c25.241-22.157,49.967-44.922,73.77-68.629
					c-53.591,37.182-105.276,77.108-155.067,119.259C1721.512,1591.615,1674.032,1635.64,1628.545,1681.639z"/>
				<path style="fill:#C8C8C1;" d="M2028.303,1342.307c10.789-4.705,19.911-13.181,28.298-21.162
					c11.014-10.48,22.33-20.512,33.746-30.555c23.508-20.68,46.83-41.568,70.334-62.25c21.427-18.856,42.854-37.662,63.702-57.165
					c10.975-10.268,21.851-20.74,32.452-31.491c-18.531,13.188-37.282,26.068-55.646,39.489
					C2190.357,1187.091,2059.62,1299.859,2028.303,1342.307z"/>
				<path style="fill:#C8C8C1;" d="M2296.367,1119.5c7.948-3.467,14.668-9.711,20.847-15.591
					c8.114-7.721,16.452-15.112,24.863-22.51c17.318-15.236,34.501-30.626,51.818-45.863c15.787-13.89,31.572-27.746,46.932-42.115
					c8.085-7.566,16.099-15.28,23.908-23.201c-13.652,9.717-27.466,19.205-40.996,29.094
					C2415.758,1005.144,2319.439,1088.226,2296.367,1119.5z"/>
				<path style="fill:#C8C8C1;" d="M1884.229,1400.942c-22.416,20.609-44.798,41.258-67.353,61.715
					c9.325-7.38,18.65-14.76,27.9-22.235c43.924-35.494,86.964-72.117,128.389-110.507c21.084-19.54,41.743-39.552,61.845-60.105
					c-13.331,10.523-26.503,21.246-39.504,32.174C1957.499,1333.927,1920.772,1367.348,1884.229,1400.942z"/>
			</g>
			<g>
				<path style="opacity:0.6;fill:#C8C8C1;" d="M1548.826,1632.244c94.226-81.886,189.641-162.395,285.782-242.021
					c95.818-79.356,192.187-158.068,288.463-236.868c96.959-79.357,194.558-157.931,292.265-236.365
					c34.583-27.761,69.173-55.512,103.76-83.267c1.022-12.247,2.774-24.416,5.721-36.387c3.509-14.259,12.61-52.357,12.61-52.357
					l-1174.492,973.417c0,0-28.349,51.176-32.818,112.727C1407.414,1770.033,1474.524,1696.816,1548.826,1632.244z"/>
			</g>
			<g>
				<g>
					<path style="fill:#064782;" d="M1352.094,1719.797L190.682,1059.89c-0.279-2.955-4.371,20.629-4.371,37.53l1178.499,664.722
						L2565.893,727.19v-26.306L1352.094,1719.797z"/>
					<path style="fill:#263B76;" d="M1364.809,1766.031c-0.654,0-1.313-0.163-1.908-0.501L184.402,1100.807
						c-1.222-0.691-1.977-1.981-1.977-3.385c0-9.411,1.209-19.93,1.929-25.36c1.92-14.463,2.543-16.14,6.058-16.307
						c1.095-0.007,2.057,0.391,2.812,1.113l1158.441,658.218L2563.393,697.911c1.159-0.971,2.776-1.191,4.14-0.546
						c1.37,0.638,2.245,2.011,2.245,3.522v26.306c0,1.13-0.494,2.204-1.349,2.944L1367.346,1765.09
						C1366.623,1765.712,1365.719,1766.031,1364.809,1766.031z M190.222,1095.164l1174.119,662.257L2562.006,725.412v-16.189
						L1354.593,1722.774c-1.246,1.047-3.005,1.207-4.419,0.402L193.153,1065.766
						C192.028,1072.399,190.434,1084.789,190.222,1095.164z"/>
				</g>
				<g>
					<path style="fill:#0067AB;" d="M1353.948,104.712c-50.206,33.174-1141.308,940.077-1163.267,955.178l1174.128,669.149
						l1166.675-999.271l34.408-28.883L1353.948,104.712z"/>
					<path style="fill:#263B76;" d="M1364.809,1732.925c-0.66,0-1.324-0.166-1.923-0.508L188.759,1063.269
						c-1.161-0.664-1.902-1.879-1.958-3.214c-0.057-1.336,0.578-2.607,1.679-3.367c8.134-5.593,174.532-143.133,367.202-302.386
						c322.707-266.738,764.667-632.046,796.125-652.83c1.151-0.766,2.618-0.853,3.857-0.246l1211.944,596.174
						c1.178,0.58,1.985,1.715,2.142,3.02c0.157,1.302-0.354,2.599-1.359,3.442l-34.407,28.883l-1166.647,999.248
						C1366.615,1732.606,1365.715,1732.925,1364.809,1732.925z M197.665,1059.397l1166.693,664.913l1164.6-997.495l29.871-25.072
						L1354.28,109.206c-43.449,31-476.254,388.741-793.647,651.088C375.79,913.077,226.713,1036.299,197.665,1059.397z"/>
				</g>
				<path style="opacity:0.62;fill:#0067AB;" d="M1353.948,104.712c-50.206,33.174-1141.309,940.078-1163.266,955.178
					l1174.127,669.149l1166.676-999.271l34.407-28.883L1353.948,104.712z M1949.695,871.652
					c-39.249,62-89.078,116.815-142.478,166.869c-52.483,49.191-108.99,93.547-165.972,137.34
					c-60.984,46.867-125.659,88.911-194.496,123.348c-136.315,68.196-290.473,106.18-443.315,91.154
					c-153.668-15.107-299.509-80.517-424.091-169.892c-48.961-35.125-97.554-73.302-135.487-120.516
					c-34.235-42.613-62.997-99.868-37.788-153.986c13.058-28.032,33.94-52.095,55.862-73.56
					c24.897-24.378,52.305-46.053,79.852-67.325c26.219-20.246,52.969-39.936,77.875-61.812
					c32.635-28.665,65.497-57.044,98.846-84.879c67.322-56.19,136.625-109.842,204.865-164.885
					c65.628-52.934,130.667-106.638,198.002-157.409c32.761-24.702,66.802-47.498,99.927-71.656
					c21.299-15.535,42.606-31.064,65.041-44.942c34.492-21.335,84.727-49.697,127.699-39.252
					c57.102,2.466,112.636,28.918,164.551,50.047c74.535,30.334,147.772,65.092,214.712,110.046
					c60.141,40.389,115.847,88.191,157.101,148.24c37.954,55.244,62.962,120.201,63.72,187.755
					C2014.92,747.334,1987.087,812.584,1949.695,871.652z"/>
				<path style="opacity:0.62;fill:#0067AB;" d="M2287.908,564.141c19.056,14.588,36.029,31.14,46.017,53.327
					c29.19,64.84-15.644,131.183-57.345,178.268c-51.756,58.438-111.287,109.431-171.359,159.042
					c-62.883,51.933-126.067,103.498-188.843,155.559c-66.695,55.31-132.869,111.245-198.936,167.301
					c-63.147,53.579-126.736,106.681-189.565,160.628c-50.241,43.139-99.339,88.734-156.774,122.355
					c-27.159,15.899-56.376,29.078-87.299,35.552c-28.547,5.979-56.905,4.464-85.565,0.227
					c-39.398-5.826-78.3-15.775-116.219-28.524l282.79,161.165l1166.676-999.271l34.407-28.883L2287.908,564.141z"/>
			</g>
			<g>
				<path style="fill:#0067AB;" d="M190.682,1059.89c0,0-76.527-25.787-131.538,15.472
					c-55.011,41.258-54.818,185.321,92.929,281.761l3.179-25.726c0,0-85.792-49.279-96.107-126.871
					c-10.315-77.593,25.692-152.092,127.167-107.107L190.682,1059.89z"/>
				<path style="fill:#263B76;" d="M152.073,1361.01c-0.743,0-1.482-0.213-2.123-0.635
					c-78.003-50.915-125.977-124.481-128.334-196.788c-1.294-39.689,11.863-73.835,35.197-91.334
					c56.006-41.997,131.908-17.125,135.111-16.044c1.74,0.585,2.831,2.307,2.618,4.129l-4.371,37.531
					c-0.143,1.229-0.859,2.314-1.933,2.925c-1.072,0.615-2.372,0.679-3.501,0.178c-38.686-17.148-70.623-17.615-92.356-1.335
					c-24.634,18.447-35.618,57.469-29.382,104.377c9.937,74.746,93.348,123.533,94.191,124.015c1.355,0.781,2.111,2.296,1.92,3.848
					l-3.178,25.725c-0.164,1.328-1.004,2.482-2.219,3.047C153.188,1360.889,152.63,1361.01,152.073,1361.01z M136.643,1055.914
					c-23.731,0-51.626,4.903-75.167,22.557c-21.308,15.98-33.305,47.705-32.095,84.863c2.224,68.167,46.802,137.718,119.606,187.07
					l2.097-16.967c-13.999-8.557-86.16-55.936-95.79-128.397c-6.612-49.735,5.512-91.464,32.428-111.625
					c16.291-12.205,45.921-22.109,95.333-1.616l3.39-29.121C179.269,1060.654,159.965,1055.914,136.643,1055.914z"/>
			</g>
		</g>
		<path style="fill:#0067AB;" d="M1392.516,147.272c-15.051-2.483-30.277-3.488-45.034,0.582
			c-14.993,4.136-28.403,11.967-41.391,20.439L285.804,1032.095c0,0-36.101,38.758,0,47.135
			c36.101,8.377,1043.711,602.409,1043.711,602.409L373.479,1079.23c0,0-59.309-27.138-10.316-67.4
			c48.995-40.263,952.813-815.148,952.813-815.148s23.207-33.522,97.988-10.315c74.782,23.208,1037.908,496.39,1037.908,496.39
			L1392.516,147.272z"/>
	</g>
	<g>
		<g>
			<g>
				<path style="fill:#0067AB;" d="M439.675,1819.933L338.422,1673.01L643.648,234.613c0,0-1.541-80.722,96.683-75.112
					L439.675,1819.933z"/>
				<path style="fill:#263B76;" d="M439.674,1823.347c-1.109,0-2.166-0.54-2.811-1.478L335.61,1674.948
					c-0.534-0.771-0.724-1.728-0.529-2.649l305.15-1438.033c0.003-4.009,0.829-33.643,23.569-55.536
					c17.58-16.923,43.394-24.528,76.726-22.636c0.976,0.053,1.883,0.527,2.489,1.294c0.605,0.77,0.852,1.761,0.677,2.721
					l-300.658,1660.43c-0.246,1.361-1.289,2.441-2.642,2.731C440.153,1823.323,439.912,1823.347,439.674,1823.347z
					 M342.068,1672.283l95.72,138.893L736.276,162.734c-29.435-1.004-52.194,5.99-67.676,20.858
					c-21.776,20.906-21.54,50.659-21.535,50.96c0.003,0.256-0.022,0.517-0.075,0.77L342.068,1672.283z"/>
			</g>
			<path style="fill:#0067AB;" d="M351.553,1692.065c16.767-83.64,33.299-167.328,50.126-250.956
				c24.972-124.104,50.818-247.951,79.706-371.208c28.748-122.651,57.976-245.227,82.764-368.758
				c12.363-61.611,23.209-123.434,37.114-184.735c12.811-56.486,28.433-112.731,38.57-169.769
				c7.016-39.475,12.139-79.466,24.246-117.825c7.281-23.07,17.428-46.689,33.295-65.162c-54.717,16.106-53.724,70.96-53.724,70.96
				L338.422,1673.01L351.553,1692.065z"/>
			<path style="fill:#0067AB;" d="M660.401,187.506c9.779-1.745,20.858-1.581,27.682,6.533c7.788,9.263,7.219,23.84,6.415,35.11
				c-1.702,23.823-6.971,47.684-11.752,71.025c-6.106,29.814-13.35,59.381-20.952,88.845
				c-15.309,59.343-30.986,118.441-43.971,178.354c-13.743,63.402-26.958,126.915-39.876,190.489
				c-25.572,125.847-49.972,251.928-75.008,377.88c-12.633,63.545-25.427,127.058-38.614,190.49
				c-6.123,29.454-11.997,58.829-16.996,88.497c-4.743,28.138-9.686,56.327-17.362,83.841
				c-7.564,27.115-17.476,52.646-32.595,76.468c-14.766,23.268-32.372,44.519-47.03,67.897c-2.961,4.722-5.804,9.497-8.574,14.309
				l-3.345,15.765l101.252,146.922L740.331,159.502C697.546,157.058,673.701,170.997,660.401,187.506z"/>
			<g>
				<path style="fill:#0067AB;" d="M468.382,1608.499l-34.962-14.426c0,0-101.021,10.121-98.755,114.408
					c2.267,104.288,121.785,147.911,188.908,147.074L468.382,1608.499z"/>
				<path style="fill:#263B76;" d="M521.762,1858.981c-66.364,0-188.188-43.468-190.513-150.427
					c-2.307-106.214,100.788-117.774,101.831-117.878c0.555-0.049,1.125,0.027,1.643,0.241l34.962,14.425
					c1.03,0.427,1.788,1.328,2.031,2.414l55.19,247.057c0.224,1.004-0.017,2.054-0.655,2.861c-0.638,0.808-1.606,1.285-2.635,1.298
					C523.004,1858.978,522.382,1858.981,521.762,1858.981z M432.931,1597.566c-10.143,1.251-96.939,14.789-94.851,110.841
					c2.193,100.935,116.746,142.699,181.228,143.727l-53.872-241.156L432.931,1597.566z"/>
			</g>
			<path style="fill:#0067AB;" d="M357.587,1652.058c15.145-15.006,34.917-24.927,56.498-25.011
				c1.574-0.006,2.122,1.826,1.209,2.916c-1.924,2.291-3.858,4.571-5.795,6.849c-13.741,16.151-28.724,32.6-36.247,52.778
				c-8.055,21.606-5.938,45.866,3.044,66.857c4.433,10.361,10.589,19.942,18.052,28.38c7.168,8.103,15.593,15.904,24.802,21.644
				c7.092,4.42,15.719,7.83,20.666,14.912c3.905,5.589,2.741,12.429-2.058,16.646c30.097,12.223,61.415,17.829,85.815,17.524
				l-55.191-247.055l-34.962-14.426c0,0-81.569,8.221-96.44,85.603C342.557,1669.554,349.421,1660.152,357.587,1652.058z"/>
			<g>
				<g>
					<polygon style="fill:#0067AB;" points="1864.471,1838.832 523.573,1855.555 499.399,1819.933 830.484,420.983 
						2099.114,350.231 2108.107,394.016 					"/>
					<path style="fill:#263B76;" d="M523.572,1858.971c-1.13,0-2.19-0.56-2.826-1.498l-24.174-35.624
						c-0.536-0.79-0.717-1.774-0.497-2.704L827.16,420.197c0.349-1.471,1.622-2.538,3.134-2.622l1268.63-70.751
						c1.664-0.217,3.196,1.064,3.535,2.721l8.992,43.783c0.085,0.413,0.093,0.84,0.022,1.254l-243.635,1444.817
						c-0.273,1.627-1.674,2.828-3.323,2.849l-1340.899,16.723C523.601,1858.971,523.586,1858.971,523.572,1858.971z
						 M503.067,1819.258l22.3,32.859l1336.211-16.663l243.054-1441.379l-8.271-40.266L833.22,424.253L503.067,1819.258z
						 M1864.472,1838.832h0.035H1864.472z"/>
				</g>
				<polygon style="fill:#0067AB;" points="1864.471,1838.832 1854.273,1819.933 499.399,1819.933 830.484,420.983 
					2099.114,350.231 2108.107,394.016 				"/>
				<g>
					<polygon style="fill:#064782;" points="1854.273,1819.933 499.399,1819.933 806.31,385.361 2099.114,350.231 					"/>
					<path style="fill:#263B76;" d="M1854.273,1823.347H499.399c-1.031,0-2.008-0.467-2.655-1.267
						c-0.648-0.804-0.901-1.855-0.685-2.862L802.97,384.646c0.33-1.54,1.672-2.658,3.247-2.702l1292.805-35.127
						c1.077,0.031,1.999,0.404,2.67,1.174c0.668,0.767,0.96,1.798,0.792,2.801l-244.842,1469.699
						C1857.367,1822.139,1855.942,1823.347,1854.273,1823.347z M503.623,1816.516h1347.756l243.685-1462.758L809.088,388.702
						L503.623,1816.516z"/>
				</g>
				<g>
					<path style="fill:#CACAC2;" d="M1721.946,1741.418l110.795,50.952l224.569-1423.285c0,0-32.207-121.573-19.602-186.57
						L764.506,195.123L1721.946,1741.418z"/>
					<path style="fill:#BAB8A9;" d="M1832.741,1795.788c-0.486,0-0.973-0.104-1.427-0.314l-110.795-50.953
						c-0.609-0.28-1.123-0.734-1.476-1.305L761.602,196.92c-0.649-1.047-0.684-2.365-0.089-3.445
						c0.594-1.081,1.724-1.755,2.959-1.768L2037.676,179.1c0.01,0,0.021,0,0.033,0c1.015,0,1.975,0.45,2.625,1.23
						c0.655,0.787,0.924,1.828,0.729,2.835c-12.313,63.477,19.23,183.84,19.55,185.047c0.122,0.457,0.146,0.937,0.071,1.408
						l-224.568,1423.286c-0.166,1.053-0.819,1.971-1.761,2.478C1833.851,1795.65,1833.296,1795.788,1832.741,1795.788z
						 M1724.307,1738.747l105.765,48.638l223.754-1418.122c-2.807-10.752-30.503-119.452-20.197-183.292L770.601,198.478
						L1724.307,1738.747z"/>
				</g>
				<path style="opacity:0.61;fill:#C8C8C1;" d="M1721.946,1741.418l72.989-10.604l250.847-1413.88c0,0-20.677-69.421-8.073-134.419
					L764.506,195.123L1721.946,1741.418z"/>
				<g>
					<path style="fill:#064782;" d="M1794.441,1608.039c0,0-34.223,119.363,38.301,184.332l-1333.342,27.562
						c0,0-44.863-11.157-70.298-27.562c-46.458-29.962-84.614-119.36,28.495-162.675L1794.441,1608.039z"/>
					<path style="fill:#263B76;" d="M499.399,1823.347c-0.278,0-0.555-0.034-0.824-0.1c-1.855-0.463-45.709-11.484-71.325-28.003
						c-26.145-16.863-50.621-53.117-46.811-89.779c2.463-23.7,17.635-56.635,75.934-78.959c0.372-0.143,0.767-0.22,1.166-0.227
						l1336.847-21.655c1.102-0.011,2.108,0.48,2.765,1.337c0.658,0.857,0.87,1.978,0.573,3.018
						c-0.336,1.174-32.765,118.085,37.297,180.848c1.044,0.938,1.412,2.417,0.923,3.732c-0.487,1.314-1.729,2.198-3.132,2.228
						l-1333.342,27.559C499.445,1823.347,499.421,1823.347,499.399,1823.347z M458.255,1633.099
						c-43.235,16.694-67.787,41.951-71.022,73.069c-3.525,33.923,19.325,67.6,43.719,83.332
						c23.362,15.065,64.187,25.815,68.838,27.006l1324.621-27.38c-57.987-59.221-39.484-155.853-34.371-177.602L458.255,1633.099z"
						/>
				</g>
				<g>
					<path style="fill:#E3E2D8;" d="M1794.933,1608.039c0,0-33.781,119.363,37.808,184.332l-1312.547,12.118
						c0,0-47.893-5.4-73.001-21.805c-45.859-29.964-83.523-109.673,28.127-152.988L1794.933,1608.039z"/>
					<path style="fill:#C9C7B6;" d="M520.194,1807.904c-0.128,0-0.255-0.007-0.382-0.02c-1.989-0.227-48.993-5.683-74.485-22.343
						c-25.633-16.746-49.875-49.145-46.25-83.768c2.298-21.953,17.176-52.828,75.008-75.264c0.377-0.144,0.775-0.224,1.179-0.231
						l1319.614-21.655c1.145-0.074,2.104,0.476,2.763,1.333c0.659,0.854,0.874,1.971,0.58,3.012
						c-0.332,1.174-32.35,118.102,36.815,180.875c1.042,0.943,1.398,2.431,0.898,3.742c-0.501,1.314-1.754,2.188-3.161,2.202
						l-1312.547,12.116C520.213,1807.904,520.204,1807.904,520.194,1807.904z M475.99,1633.099
						c-42.877,16.763-67.121,40.748-70.119,69.384c-3.309,31.589,20.069,62.234,43.192,77.342
						c23.328,15.243,67.957,20.845,71.316,21.246l1304.018-12.037c-57.16-59.238-38.89-155.801-33.849-177.506L475.99,1633.099z"/>
				</g>
				<path style="opacity:0.61;fill:#C8C8C1;" d="M1694.438,1792.133c-62.288-0.384-124.645,0.605-186.916-0.811
					c-126.113-2.865-252.228-5.709-378.351-8.151c-78.119-1.512-156.407-4.667-234.54-3.065
					c-53.363,1.095-106.739,1.798-160.106,0.512c-57.583-1.387-116.461-3.553-172.941-15.769
					c-22.082-4.775-76.779-16.594-67.761-50.271c3.34-12.475,14.037-21.021,24.911-26.956c15.236-8.316,32.374-13.06,49.222-16.816
					c41.08-9.157,83.691-13.747,125.523-17.439c61.115-5.394,122.451-6.863,183.678-10.401
					c62.708-3.624,125.375-7.898,188.063-11.83c62.95-3.949,125.93-7.556,188.968-9.791c62.387-2.212,124.837-2.787,187.256-3.585
					c62.481-0.8,125.092-1.703,187.567-0.047c54.292,1.44,108.769,7.506,163.012,3.139c1.574-8.051,2.91-12.812,2.91-12.812
					l-1319.614,21.656c-111.65,43.315-73.987,123.025-28.126,152.988c25.107,16.405,73,21.805,73,21.805l1247.298-11.515
					C1743.14,1792.629,1718.788,1792.284,1694.438,1792.133z"/>
				<g>
					<path style="fill:#C8C8C1;" d="M1667.115,1610.137c39.402,1.224,78.804,1.585,118-1.936L1667.115,1610.137z"/>
					<path style="fill:#A7A699;" d="M1715.437,1614.406c-16.927,0-33.251-0.384-48.43-0.854c-1.852-0.06-3.321-1.584-3.308-3.442
						c0.014-1.854,1.505-3.359,3.359-3.389l118-1.934c1.954,0.066,3.371,1.401,3.467,3.235c0.097,1.834-1.274,3.418-3.104,3.581
						C1761.92,1613.712,1738.14,1614.406,1715.437,1614.406z"/>
				</g>
				<path style="opacity:0.61;fill:#C8C8C1;" d="M1449.711,1786.978c-70.879-4.738-141.88-8.039-212.907-9.344
					c-70.901-1.303-141.819-0.791-212.724,0.033c-34.385,0.399-68.776,1.082-103.161,1.328c-33.156,0.238-66.489-0.965-98.919-8.419
					c-1.569-0.361-1.687-3.021,0-3.293c28.349-4.574,56.872-7.941,85.476-10.456c93.748-8.244,188.022-7.92,281.791-15.663
					c-29.526-0.656-59.06-0.944-88.595-0.976c-68.391-0.071-136.928,0.232-205.28,2.628c-67.062,2.35-203.606-4.175-201.366-4.301
					c25.645-1.438,221.884-35.065,295.443-39.594c-22.282-0.937-325.02,2.675-454.09-0.807c-1.87-0.051-2.393-2.96-0.453-3.355
					c45.463-9.256,91.281-16.645,137.283-22.643c72.045-9.396,144.391-15.454,216.864-19.81c-33.334,1.308-66.661,2.738-99.95,4.538
					c-78.882,4.263-158.229,14.641-237.124,5.008c-2.166-0.264-2.223-3.219,0-3.415c92.466-8.181,184.101-22.279,277.028-24.748
					c83.678-2.223,167.369-4.674,250.935-9.677c31.026-1.856,62.025-3.854,93.024-5.764l-697.664,11.449
					c-111.65,43.315-73.987,123.025-28.126,152.988c25.107,16.405,73,21.805,73,21.805l1041.389-9.614
					C1524.291,1792.268,1487.01,1789.47,1449.711,1786.978z"/>
				<g>
					<g>
						<polygon style="fill:#0067AB;" points="1794.441,1620.127 457.595,1629.695 433.42,1594.073 764.506,195.123 
							2033.136,124.372 2045.781,160.557 						"/>
						<path style="fill:#263B76;" d="M457.594,1633.109c-1.13,0-2.189-0.56-2.826-1.497l-24.174-35.621
							c-0.538-0.791-0.718-1.775-0.498-2.705L761.182,194.336c0.348-1.471,1.622-2.538,3.134-2.621l1268.63-70.752
							c1.491-0.059,2.913,0.841,3.413,2.282l12.646,36.184c0.192,0.547,0.241,1.134,0.142,1.708l-251.34,1459.57
							c-0.28,1.627-1.688,2.822-3.34,2.835l-1336.847,9.568C457.611,1633.109,457.603,1633.109,457.594,1633.109z M437.089,1593.4
							l22.307,32.866l1332.164-9.536l250.707-1455.884l-11.507-32.922L767.242,198.391L437.089,1593.4z M1794.441,1620.126h0.036
							H1794.441z"/>
					</g>
					<polygon style="fill:#931E18;" points="1794.441,1620.127 457.595,1629.695 1788.294,1594.073 764.506,195.123 
						2033.136,124.372 2045.781,160.557 					"/>
					<g>
						<polygon style="fill:#0067AB;" points="1788.294,1594.073 433.42,1594.073 740.331,159.501 2033.136,124.372 						"/>
						<path style="fill:#263B76;" d="M1788.294,1597.49H433.42c-1.03,0-2.007-0.467-2.655-1.268c-0.648-0.8-0.901-1.854-0.685-2.861
							L736.991,158.788c0.33-1.54,1.673-2.658,3.247-2.702l1292.805-35.13c1.042-0.024,2,0.403,2.67,1.174
							c0.668,0.767,0.96,1.798,0.792,2.801l-244.842,1469.702C1791.39,1596.282,1789.963,1597.49,1788.294,1597.49z
							 M437.642,1590.658h1347.759l243.685-1462.761L743.11,162.844L437.642,1590.658z"/>
					</g>
					<path style="opacity:0.62;fill:#0067AB;" d="M1017.053,151.983c25.658,0.319,51.312,0.976,77.041,1.557
						c62.41,1.411,124.837,2.688,187.177,6.109c29.14,1.599,58.268,4.935,87.416,5.936c21.357,0.735,42.725,1.221,64.067,2.37
						c80.494,4.334,175.125,17.945,220.741,93.288c41.132,67.933,32.606,156.874,19.83,231.58
						c-13.909,81.346-39.036,160.137-56.262,240.754c-25.325,118.521-48.635,237.527-78.351,355.061
						c-14.741,58.305-31.059,116.237-50.039,173.313c-15.811,47.547-32.566,94.06-62.524,134.774
						c-58.448,79.434-150.356,122.705-243.144,148.587c-53.325,14.875-107.837,24.798-162.054,35.746
						c-19.846,4.008-39.594,8.423-59.301,13.016h826.645l244.842-1469.701L1017.053,151.983z"/>
					<path style="opacity:0.62;fill:#0067AB;" d="M1660.464,134.499c7.064,0.779,14.125,1.585,21.183,2.414
						c27.32,3.213,54.597,6.788,81.837,10.62c24.552,3.454,49.476,6.16,73.581,12.1c30.174,7.435,60.177,20.254,81.83,43.225
						c19.933,21.147,30.202,48.79,34.167,77.223c5.553,39.846,0.107,80.258-4.635,119.889
						c-6.658,55.642-15.516,111.001-25.717,166.098c-20.406,110.208-139.713,788.696-155.596,841.717
						c-48.884,163.179-166.253,165.34-226.898,185.734c-0.573,0.193-1.152,0.364-1.726,0.555h249.804l244.842-1469.701
						L1660.464,134.499z"/>
				</g>
			</g>
			<path style="fill:#0067AB;" d="M493.405,1851.763c-31.932-9.603-63.082-23.711-88.995-44.985
				c-23.537-19.325-42.011-45.097-48.384-75.232c-6.291-29.743-1.811-62.226,12.463-89.074c9.4-17.681,23.253-32.379,40.106-42.349
				c-29.753,10.38-75.464,37.812-73.93,108.358c2.055,94.547,100.481,139.231,168.865,146.13
				C500.14,1853.708,496.761,1852.773,493.405,1851.763z"/>
		</g>
		<path style="fill:#C8C8C1;" d="M1741.092,1710.33c0,0-726.281-1.676-885.048,20.864
			C856.045,1731.194,1520.283,1731.736,1741.092,1710.33z"/>
		<path style="fill:#C8C8C1;" d="M1718.231,1751.475c0,0-492.739-9.669-600.791,8.592
			C1117.44,1760.067,1568.101,1768.029,1718.231,1751.475z"/>
		<path style="fill:#C8C8C1;" d="M1739.582,1659.387c0,0-819.997-1.517-999.251,18.886
			C740.331,1678.274,1490.28,1678.764,1739.582,1659.387z"/>
		<path style="fill:#0067AB;" d="M840.165,172.607c0,0-65.848,3.258-82.784,52.622
			c-16.937,49.365-257.983,1223.349-257.983,1223.349s-28.653,109.033,24.174,109.033c71.951,0,491.103,0,491.103,0l-383.018-44.686
			c0,0-63.459,12.709-52.127-114.208c11.332-126.917,203.974-1001.739,317.293-1076.53
			c113.319-74.791,407.903-121.331,600.567-134.323c192.665-12.992,460.097-28.644,460.097-28.644L840.165,172.607z"/>
	</g>
</g>
</svg>
